<?xml version="1.0" standalone="no"?>
<!DOCTYPE svg PUBLIC "-//W3C//DTD SVG 20010904//EN"
 "http://www.w3.org/TR/2001/REC-SVG-20010904/DTD/svg10.dtd">
<svg version="1.0" xmlns="http://www.w3.org/2000/svg"
 width="164.000000pt" height="145.000000pt" viewBox="0 0 164.000000 145.000000"
 preserveAspectRatio="xMidYMid meet">

<g transform="translate(0.000000,145.000000) scale(0.100000,-0.100000)"
fill="#d4d777" stroke="none">
<path d="M120 1399 c-97 -39 -126 -163 -65 -279 13 -25 27 -57 30 -72 3 -15
19 -44 37 -63 60 -69 61 -69 388 -75 l296 -5 -14 -47 -13 -47 -197 -3 c-189
-3 -199 -4 -242 -28 -116 -65 -156 -242 -73 -322 46 -44 71 -48 309 -48 l224
0 109 -54 109 -55 4 -95 c4 -103 15 -128 72 -170 26 -20 41 -21 229 -21 197 0
203 1 236 24 55 39 61 68 61 280 0 289 15 258 -352 755 -172 234 -221 293
-253 310 -38 20 -56 21 -455 23 -261 1 -424 -2 -440 -8z m850 -99 c23 -12 473
-625 515 -700 l30 -55 3 -203 c3 -147 0 -207 -8 -218 -10 -11 -47 -14 -183
-14 -214 0 -207 -4 -207 127 0 52 -5 103 -10 114 -6 11 -74 51 -150 89 l-140
70 -232 0 c-201 0 -234 2 -250 17 -37 34 -12 129 44 163 30 18 50 20 234 20
178 0 204 2 222 18 11 9 34 60 51 113 34 103 32 137 -8 158 -13 7 -131 11
-331 11 l-312 0 -34 34 c-41 41 -47 93 -14 126 19 19 33 20 350 20 213 0 330
4 330 10 0 6 -118 10 -335 10 l-336 0 -25 -25 c-14 -14 -27 -25 -28 -25 -8 0
-26 64 -26 88 0 14 7 34 17 44 15 17 41 18 415 18 243 0 407 -4 418 -10z"/>
</g>
</svg>
