<?xml version="1.0" standalone="no"?>
<!DOCTYPE svg PUBLIC "-//W3C//DTD SVG 20010904//EN"
 "http://www.w3.org/TR/2001/REC-SVG-20010904/DTD/svg10.dtd">
<svg version="1.0" xmlns="http://www.w3.org/2000/svg"
 width="130.000000pt" height="142.000000pt" viewBox="0 0 130.000000 142.000000"
 preserveAspectRatio="xMidYMid meet">

<g transform="translate(0.000000,142.000000) scale(0.100000,-0.100000)"
fill="#d4d777" stroke="none">
<path d="M625 1381 c-23 -10 -53 -32 -67 -50 -20 -23 -35 -31 -60 -31 -41 0
-106 -30 -135 -61 -46 -51 -53 -86 -53 -285 0 -152 -2 -184 -13 -176 -23 19
-95 25 -142 12 -81 -23 -145 -110 -145 -196 1 -52 35 -108 203 -331 214 -285
166 -263 562 -263 424 0 412 -8 471 302 33 173 34 189 34 416 0 220 -1 239
-21 280 -25 51 -77 88 -136 98 -39 6 -43 9 -43 36 0 77 -79 156 -166 166 -37
4 -55 13 -85 43 -58 58 -132 73 -204 40z m116 -91 c45 -24 49 -53 49 -330 0
-167 4 -260 10 -260 6 0 10 80 10 221 l0 221 29 29 c46 46 106 37 136 -21 12
-23 15 -71 15 -240 0 -133 4 -210 10 -210 6 0 10 46 10 119 0 114 1 121 26
150 33 40 83 43 119 6 l25 -24 0 -237 c0 -222 -2 -248 -31 -403 -26 -143 -34
-169 -55 -188 -25 -23 -28 -23 -319 -23 -161 0 -301 3 -311 7 -16 6 -316 400
-342 450 -24 45 -6 105 39 129 64 33 100 14 180 -94 l64 -86 5 323 5 323 28
24 c47 40 104 29 132 -26 12 -23 15 -71 15 -240 0 -133 4 -210 10 -210 6 0 10
97 10 271 l0 271 29 29 c31 30 67 37 102 19z"/>
</g>
</svg>
