<?xml version="1.0" standalone="no"?>
<!DOCTYPE svg PUBLIC "-//W3C//DTD SVG 20010904//EN"
 "http://www.w3.org/TR/2001/REC-SVG-20010904/DTD/svg10.dtd">
<svg version="1.0" xmlns="http://www.w3.org/2000/svg"
 width="125.000000pt" height="113.000000pt" viewBox="0 0 125.000000 113.000000"
 preserveAspectRatio="xMidYMid meet">

<g transform="translate(0.000000,113.000000) scale(0.100000,-0.100000)"
fill="#d4d777" stroke="none">
<path d="M558 1091 c-15 -5 -37 -16 -49 -25 -17 -12 -36 -14 -76 -9 -97 11
-193 -49 -208 -131 -6 -30 -11 -34 -48 -40 -57 -10 -103 -40 -132 -90 -23 -40
-25 -52 -25 -180 0 -107 4 -146 16 -173 9 -19 77 -91 150 -161 106 -100 134
-132 134 -153 0 -37 39 -91 80 -111 31 -16 68 -18 315 -18 247 0 284 2 315 18
43 21 80 75 80 117 0 18 23 124 51 236 l50 204 -3 161 c-3 160 -3 161 -32 198
-35 46 -96 75 -157 76 -34 0 -51 6 -65 21 -10 12 -31 27 -46 35 -31 16 -115
19 -152 4 -18 -7 -33 -5 -57 7 -38 19 -104 25 -141 14z m111 -107 c32 -23 51
-73 51 -134 0 -27 5 -50 10 -50 6 0 10 28 10 64 0 73 21 110 69 121 67 15 111
-39 111 -136 0 -27 5 -49 10 -49 6 0 10 13 10 29 0 70 91 105 147 57 27 -24
28 -27 31 -139 3 -109 1 -125 -47 -327 -28 -118 -51 -228 -51 -245 0 -17 -7
-41 -16 -53 -15 -22 -17 -22 -289 -22 -272 0 -274 0 -289 22 -9 12 -16 36 -16
52 0 25 -23 52 -147 172 l-148 142 -4 91 c-4 114 4 157 34 187 34 34 79 32
116 -5 28 -28 29 -34 29 -115 0 -46 4 -87 9 -91 6 -3 11 66 13 176 l3 181 28
24 c39 33 90 32 122 -2 20 -22 25 -37 25 -80 0 -79 16 -66 22 18 5 65 9 75 37
100 36 32 84 37 120 12z"/>
</g>
</svg>
