<?xml version="1.0" standalone="no"?>
<!DOCTYPE svg PUBLIC "-//W3C//DTD SVG 20010904//EN"
 "http://www.w3.org/TR/2001/REC-SVG-20010904/DTD/svg10.dtd">
<svg version="1.0" xmlns="http://www.w3.org/2000/svg"
 width="140.000000pt" height="122.000000pt" viewBox="0 0 140.000000 122.000000"
 preserveAspectRatio="xMidYMid meet">

<g transform="translate(0.000000,122.000000) scale(0.100000,-0.100000)"
fill="#d4d777" stroke="none">
<path d="M257 1210 c-46 -14 -94 -56 -117 -105 -46 -96 -6 -212 90 -261 l45
-23 -60 -1 c-75 0 -136 -29 -179 -83 -29 -36 -31 -45 -31 -117 0 -72 2 -81 31
-117 16 -21 50 -48 74 -61 39 -19 59 -22 167 -22 l123 0 0 -40 c0 -55 20 -99
62 -136 21 -19 39 -45 43 -65 10 -47 28 -79 62 -110 46 -43 91 -52 237 -47
112 4 155 11 295 47 90 23 176 48 191 56 40 21 88 80 95 117 3 18 5 173 3 345
l-3 311 -31 39 c-59 73 -75 77 -299 84 l-200 5 -252 97 c-248 95 -286 105
-346 87z m347 -190 c144 -55 273 -100 286 -100 20 0 17 -6 -33 -59 l-57 -60 0
-98 0 -99 -92 -42 -93 -42 -227 0 -228 0 -31 28 c-26 24 -32 36 -32 72 0 36 6
48 32 72 l31 28 266 0 265 0 -3 26 c-3 25 -17 32 -213 106 -233 87 -255 102
-255 169 0 52 43 99 90 99 17 0 149 -45 294 -100z m658 -129 l33 -29 0 -302 0
-302 -31 -28 c-43 -38 -341 -112 -434 -108 l-62 3 132 59 c150 68 175 91 166
159 -5 40 -35 82 -67 92 -17 6 -17 8 1 38 16 26 20 50 20 125 0 55 -4 92 -10
92 -6 0 -10 -34 -10 -81 0 -92 -17 -140 -56 -158 -38 -17 -59 -14 -93 15 l-31
26 0 151 0 152 66 62 67 63 138 0 139 0 32 -29z m-462 -360 c0 -43 39 -101 68
-101 28 0 1 -15 -131 -75 -71 -32 -142 -58 -158 -58 -34 0 -74 34 -84 70 -13
52 20 82 155 144 69 32 131 58 138 58 7 1 12 -13 12 -38z m201 -121 c27 -15
51 -65 43 -94 -3 -13 -15 -33 -27 -44 -28 -26 -307 -152 -336 -152 -33 0 -81
52 -81 89 0 48 36 76 190 145 147 67 176 74 211 56z"/>
</g>
</svg>
