<?xml version="1.0" standalone="no"?>
<!DOCTYPE svg PUBLIC "-//W3C//DTD SVG 20010904//EN"
 "http://www.w3.org/TR/2001/REC-SVG-20010904/DTD/svg10.dtd">
<svg version="1.0" xmlns="http://www.w3.org/2000/svg"
 width="156.000000pt" height="142.000000pt" viewBox="0 0 156.000000 142.000000"
 preserveAspectRatio="xMidYMid meet">

<g transform="translate(0.000000,142.000000) scale(0.100000,-0.100000)"
fill="#d4d777" stroke="none">
<path d="M572 1389 c-44 -22 -76 -58 -93 -107 -7 -22 -20 -32 -48 -41 -49 -14
-108 -78 -117 -126 -10 -53 -1 -110 49 -313 42 -171 43 -182 23 -167 -79 57
-111 70 -173 70 -52 0 -68 -5 -105 -30 -89 -62 -114 -184 -56 -272 30 -46 461
-369 510 -384 44 -12 604 -12 647 1 56 16 99 66 121 140 40 138 80 310 89 391
6 46 31 167 56 269 31 130 43 195 39 220 -13 72 -68 132 -139 151 -25 7 -35
16 -35 29 0 25 -54 86 -94 107 -39 20 -123 20 -162 0 -67 -35 -89 -75 -124
-224 -18 -76 -35 -144 -39 -151 -4 -7 -26 68 -49 166 -48 200 -67 238 -135
271 -55 27 -110 27 -165 0z m128 -89 c11 -6 24 -18 29 -28 5 -9 34 -123 65
-252 84 -348 69 -310 124 -310 l48 0 54 228 c29 125 60 241 67 259 37 82 163
57 163 -33 0 -17 -22 -124 -50 -237 -55 -227 -53 -217 -42 -217 5 0 26 75 48
168 32 138 43 172 66 195 32 33 74 36 111 7 43 -34 42 -61 -13 -280 -27 -111
-50 -220 -50 -242 0 -66 -90 -407 -113 -429 -19 -18 -40 -19 -322 -19 l-301 0
-209 155 c-116 86 -220 167 -232 181 -54 59 -9 164 70 164 28 0 59 -18 163
-95 71 -52 132 -95 137 -95 4 0 7 34 7 76 0 58 -14 134 -60 325 -32 137 -56
257 -53 267 19 54 69 78 118 57 43 -17 47 -26 90 -210 48 -202 54 -225 64
-225 4 0 -18 109 -50 243 -33 133 -59 257 -59 275 0 63 73 103 130 72z"/>
</g>
</svg>
